<svg width="44" height="45" viewBox="0 0 44 45" fill="none" xmlns="http://www.w3.org/2000/svg">
<g id="iconoir:air-conditioner">
<path id="Vector" d="M40.3333 20.8388V7.27212C40.3333 6.98038 40.2174 6.70059 40.0111 6.4943C39.8048 6.28801 39.5251 6.17212 39.2333 6.17212H4.76666C4.47492 6.17212 4.19513 6.28801 3.98884 6.4943C3.78255 6.70059 3.66666 6.98038 3.66666 7.27212V20.8388M40.3333 20.8388H3.66666M40.3333 20.8388L38.885 25.5761C38.6557 26.3271 38.1914 26.9847 37.5603 27.452C36.9293 27.9194 36.1649 28.1718 35.3797 28.1721H33M3.66666 20.8388L5.11499 25.5761C5.34428 26.3271 5.80862 26.9847 6.43965 27.452C7.07069 27.9194 7.83508 28.1718 8.62032 28.1721H11M33 13.5055H34.8333M17.4167 27.2555C17.4167 27.2555 17.4167 40.0888 11 40.0888M26.5833 27.2555C26.5833 27.2555 26.5833 40.0888 33 40.0888M22 27.2555V40.0888" stroke="#BA0000" stroke-width="1.5" stroke-linecap="round" stroke-linejoin="round"/>
</g>
</svg>
