<svg width="44" height="45" viewBox="0 0 44 45" fill="none" xmlns="http://www.w3.org/2000/svg">
<g id="material-symbols-light:balcony-rounded">
<path id="Vector" d="M16.5 22.2505C16.1211 22.2505 15.7911 22.1099 15.51 21.8288C15.2289 21.5477 15.0883 21.2177 15.0883 20.8388C15.0883 20.4599 15.2289 20.1299 15.51 19.8488C15.7911 19.5677 16.1211 19.4271 16.5 19.4271C16.8789 19.4271 17.2089 19.5677 17.49 19.8488C17.7711 20.1299 17.9117 20.4599 17.9117 20.8388C17.9117 21.2177 17.7711 21.5477 17.49 21.8288C17.2089 22.1099 16.8789 22.2505 16.5 22.2505ZM27.5 22.2505C27.1211 22.2505 26.7911 22.1099 26.51 21.8288C26.2289 21.5477 26.0883 21.2177 26.0883 20.8388C26.0883 20.4599 26.2289 20.1299 26.51 19.8488C26.7911 19.5677 27.1211 19.4271 27.5 19.4271C27.8789 19.4271 28.2089 19.5677 28.49 19.8488C28.7711 20.1299 28.9117 20.4599 28.9117 20.8388C28.9117 21.2177 28.7711 21.5477 28.49 21.8288C28.2089 22.1099 27.8789 22.2505 27.5 22.2505ZM10.2942 39.1721C9.47529 39.1721 8.77679 38.8837 8.19868 38.3068C7.62179 37.7299 7.33334 37.0314 7.33334 36.2113V28.9476C7.33334 28.5247 7.46107 28.1538 7.71651 27.8348C7.97073 27.517 8.31295 27.3153 8.74318 27.2298H9.16668V19.0055C9.16668 17.2235 9.50157 15.5563 10.1713 14.0041C10.8411 12.4519 11.7584 11.0934 12.9232 9.92862C14.088 8.76384 15.4526 7.84717 17.017 7.17862C18.5815 6.50762 20.2425 6.17212 22 6.17212C23.782 6.17212 25.4491 6.50701 27.0013 7.17679C28.5536 7.84656 29.9121 8.76384 31.0768 9.92862C32.2416 11.0934 33.1583 12.4519 33.8268 14.0041C34.4978 15.5563 34.8333 17.2235 34.8333 19.0055V27.2316H35.222C35.651 27.316 35.9993 27.5176 36.267 27.8366C36.5335 28.1544 36.6667 28.5247 36.6667 28.9476V36.2113C36.6667 37.0302 36.3782 37.7287 35.8013 38.3068C35.2245 38.8837 34.526 39.1721 33.7058 39.1721H10.2942ZM9.16668 28.9476V36.2113C9.16668 36.5401 9.2724 36.8102 9.48384 37.0216C9.69529 37.2331 9.9654 37.3388 10.2942 37.3388H13.75V28.9476H9.16668ZM15.5833 37.3388H21.0833V28.9476H15.5833V37.3388ZM11 27.1143H21.0833V8.07329C18.48 8.21873 16.1486 9.30712 14.0892 11.3385C12.0297 13.371 11 15.9267 11 19.0055V27.1143ZM22.9167 27.1143H33V19.0055C33 15.9255 31.9703 13.3698 29.9108 11.3385C27.8526 9.30712 25.5212 8.21873 22.9167 8.07329V27.1143ZM22.9167 37.3388H28.4167V28.9476H22.9167V37.3388ZM30.25 37.3388H33.7058C34.0346 37.3388 34.3047 37.2331 34.5162 37.0216C34.7276 36.8102 34.8333 36.5401 34.8333 36.2113V28.9476H30.25V37.3388Z" fill="#BA0000"/>
</g>
</svg>
