<svg width="44" height="45" viewBox="0 0 44 45" fill="none" xmlns="http://www.w3.org/2000/svg">
<g id="openmoji:hanging-gardens-of-babylon">
<path id="Vector" d="M39.2914 34.2587V28.62H4.7086V34.2587H8.12594V33.9263C8.12594 33.5996 8.19027 33.2762 8.31526 32.9745C8.44026 32.6727 8.62347 32.3985 8.85443 32.1675C9.08539 31.9366 9.35958 31.7534 9.66134 31.6284C9.9631 31.5034 10.2865 31.439 10.6132 31.439C10.9398 31.439 11.2632 31.5034 11.565 31.6284C11.8667 31.7534 12.1409 31.9366 12.3719 32.1675C12.6028 32.3985 12.7861 32.6727 12.9111 32.9745C13.036 33.2762 13.1004 33.5996 13.1004 33.9263V34.2587H15.7172V33.9263C15.7172 33.2666 15.9792 32.634 16.4456 32.1675C16.9121 31.7011 17.5447 31.439 18.2044 31.439C18.864 31.439 19.4967 31.7011 19.9631 32.1675C20.4296 32.634 20.6916 33.2666 20.6916 33.9263V34.2587H23.3084V33.9263C23.3084 33.2666 23.5704 32.634 24.0369 32.1675C24.5033 31.7011 25.1359 31.439 25.7956 31.439C26.4553 31.439 27.0879 31.7011 27.5543 32.1675C28.0208 32.634 28.2828 33.2666 28.2828 33.9263V34.2587H30.9002V33.9263C30.9002 33.2666 31.1623 32.634 31.6287 32.1675C32.0952 31.7011 32.7278 31.439 33.3874 31.439C34.0471 31.439 34.6797 31.7011 35.1462 32.1675C35.6126 32.634 35.8747 33.2666 35.8747 33.9263V34.2587H39.2914Z" fill="#D0CFCE"/>
<path id="Vector_2" d="M34.815 22.9821C34.815 22.4055 34.586 21.8526 34.1784 21.4448C33.7707 21.0371 33.2178 20.8079 32.6413 20.8077H11.3587C10.782 20.8077 10.229 21.0368 9.82123 21.4446C9.41346 21.8524 9.18438 22.4054 9.18438 22.9821H34.815Z" fill="#B1CC33"/>
<path id="Vector_3" d="M8.02083 22.9812H35.9792V28.6199H8.02083V22.9812Z" fill="#D0CFCE"/>
<path id="Vector_4" d="M29.1237 15.169V14.5566H26.7942L26.5192 15.169H14.8763C14.2996 15.169 13.7466 15.3981 13.3388 15.8058C12.931 16.2136 12.7019 16.7666 12.7019 17.3433H31.2981C31.2981 16.7666 31.069 16.2136 30.6612 15.8058C30.2534 15.3981 29.7004 15.169 29.1237 15.169Z" fill="#B1CC33"/>
<path id="Vector_5" d="M11.4321 20.8069V17.3432H25.3251L25.674 16.7314H32.5679V20.8069H11.4321Z" fill="#D0CFCE"/>
<path id="Vector_6" d="M35.8814 26.4456H25.3458V25.8333H14.1044V26.4456H8.11922C7.54255 26.4456 6.9895 26.6747 6.58173 27.0824C6.17397 27.4902 5.94489 28.0433 5.94489 28.6199H38.0551C38.0551 28.0434 37.8261 27.4904 37.4185 27.0826C37.0108 26.6749 36.458 26.4457 35.8814 26.4456Z" fill="#B1CC33"/>
<g id="Group">
<path id="Vector_7" d="M8.02083 26.4458V22.9814H35.9792V26.4458M11.4321 20.8071V17.3433H25.674M19.2714 11.7321C18.6232 11.2852 17.8544 11.0459 17.0671 11.0459C16.2798 11.0459 15.5111 11.2852 14.8628 11.7321" stroke="#BA0000" stroke-linecap="round" stroke-linejoin="round"/>
<path id="Vector_8" d="M18.5521 8.65125C17.721 8.79605 16.9426 9.15693 16.2951 9.69765C15.6475 10.2384 15.1536 10.9399 14.8628 11.7319C14.2164 11.0569 13.3973 10.5722 12.4946 10.3303C11.592 10.0884 10.6402 10.0986 9.74294 10.3599" stroke="#BA0000" stroke-linecap="round" stroke-linejoin="round"/>
<path id="Vector_9" d="M11.2585 12.4127C11.744 11.9881 12.3342 11.7011 12.9679 11.5814C13.6017 11.4617 14.2559 11.5137 14.8628 11.7319M13.0607 8.51868C14.7094 9.18601 14.8634 11.7319 14.8634 11.7319M27.6754 18.8709C28.3428 18.3058 29.1569 17.9419 30.023 17.8215C30.8892 17.7011 31.7717 17.8291 32.5679 18.1907M32.5679 18.1907C32.5679 18.1907 31.7802 15.1688 29.1237 15.1688M32.5679 18.1907C33.2143 17.5156 34.0335 17.0306 34.9363 16.7886C35.8391 16.5466 36.791 16.5568 37.6884 16.8182" stroke="#BA0000" stroke-linecap="round" stroke-linejoin="round"/>
<path id="Vector_10" d="M36.1729 18.8708C35.6873 18.4463 35.0969 18.1593 34.463 18.0397C33.8292 17.9201 33.1749 17.9722 32.5679 18.1906M32.5679 18.1906C32.5679 18.1906 32.7213 15.6448 34.3701 14.978M32.5679 18.1906V22.9818M34.815 22.9818C34.815 22.4052 34.586 21.8522 34.1784 21.4445C33.7707 21.0367 33.2178 20.8076 32.6413 20.8074H11.3587C10.782 20.8074 10.229 21.0365 9.82123 21.4443C9.41346 21.852 9.18438 22.4051 9.18438 22.9818M14.8628 11.7318V20.8074M14.1044 26.4455H8.11921C7.54255 26.4455 6.98949 26.6746 6.58173 27.0824C6.17396 27.4901 5.94488 28.0432 5.94488 28.6199H38.0551C38.0551 28.0433 37.8261 27.4903 37.4185 27.0826C37.0108 26.6748 36.4579 26.4457 35.8814 26.4455H25.3458M39.2914 34.2586V28.6199H4.7086V34.2586H8.12594V33.9261C8.12594 33.5995 8.19027 33.2761 8.31526 32.9743C8.44026 32.6726 8.62347 32.3984 8.85443 32.1674C9.08539 31.9365 9.35958 31.7532 9.66134 31.6282C9.9631 31.5033 10.2865 31.4389 10.6132 31.4389C10.9398 31.4389 11.2632 31.5033 11.565 31.6282C11.8667 31.7532 12.1409 31.9365 12.3719 32.1674C12.6029 32.3984 12.7861 32.6726 12.9111 32.9743C13.036 33.2761 13.1004 33.5995 13.1004 33.9261V34.2586H15.7172V33.9261C15.7172 33.2665 15.9792 32.6339 16.4456 32.1674C16.9121 31.701 17.5447 31.4389 18.2044 31.4389C18.864 31.4389 19.4967 31.701 19.9631 32.1674C20.4296 32.6339 20.6916 33.2665 20.6916 33.9261V34.2586H23.3084V33.9261C23.3084 33.2665 23.5704 32.6339 24.0369 32.1674C24.5033 31.701 25.1359 31.4389 25.7956 31.4389C26.4553 31.4389 27.0879 31.701 27.5543 32.1674C28.0208 32.6339 28.2828 33.2665 28.2828 33.9261V34.2586H30.9002V33.9261C30.9002 33.2665 31.1623 32.6339 31.6287 32.1674C32.0952 31.701 32.7278 31.4389 33.3874 31.4389C34.0471 31.4389 34.6797 31.701 35.1462 32.1674C35.6126 32.6339 35.8747 33.2665 35.8747 33.9261V34.2586H39.2914Z" stroke="#BA0000" stroke-linecap="round" stroke-linejoin="round"/>
<path id="Vector_11" d="M23.2302 26.4339C21.2783 26.4339 19.9381 28.6199 19.9381 28.6199M19.9381 28.6199C20.151 27.6308 20.1385 26.6065 19.9014 25.623M19.9381 28.6199C19.5445 27.9827 18.9765 27.4723 18.3014 27.148C17.6263 26.8237 16.8724 26.6997 16.129 26.7908M26.7942 15.1687H14.8763C14.2996 15.1687 13.7465 15.3978 13.3388 15.8055C12.931 16.2133 12.7019 16.7664 12.7019 17.343H25.674" stroke="#BA0000" stroke-linecap="round" stroke-linejoin="round"/>
</g>
</g>
</svg>
