<svg width="44" height="45" viewBox="0 0 44 45" fill="none" xmlns="http://www.w3.org/2000/svg">
<g id="ic:twotone-home-max">
<path id="Vector" opacity="0.3" d="M34.8333 13.5055H9.16667C7.15 13.5055 5.5 15.1555 5.5 17.1722V26.3388C5.5 28.3555 7.15 30.0055 9.16667 30.0055H34.8333C36.85 30.0055 38.5 28.3555 38.5 26.3388V17.1722C38.5 15.1555 36.85 13.5055 34.8333 13.5055Z" fill="#BA0000" fill-opacity="0.02"/>
<path id="Vector_2" d="M13.3333 33.6721V33.1721H12.8333H9.16667C5.39114 33.1721 2.33334 30.1143 2.33334 26.3387V17.1721C2.33334 13.3966 5.39114 10.3387 9.16667 10.3387H34.8333C38.6089 10.3387 41.6667 13.3966 41.6667 17.1721V26.3387C41.6667 30.1143 38.6089 33.1721 34.8333 33.1721H31.1667H30.6667V33.6721V35.0054H13.3333V33.6721ZM34.8333 30.5054C37.1261 30.5054 39 28.6316 39 26.3387V17.1721C39 14.8793 37.1261 13.0054 34.8333 13.0054H9.16667C6.87386 13.0054 5 14.8793 5 17.1721V26.3387C5 28.6316 6.87386 30.5054 9.16667 30.5054H34.8333Z" fill="#BA0000" fill-opacity="0.15" stroke="#BA0000"/>
</g>
</svg>
