<svg width="44" height="45" viewBox="0 0 44 45" fill="none" xmlns="http://www.w3.org/2000/svg">
<g id="healthicons:security-worker">
<path id="Vector" d="M32.567 33.1873L32.0833 33.0607C32.567 33.1873 32.567 33.1874 32.567 33.1875L32.5669 33.1878L32.5667 33.1886L32.5661 33.1908L32.5642 33.1979L32.5576 33.2221C32.5519 33.2426 32.5436 33.2716 32.5329 33.3079C32.5113 33.3805 32.4796 33.4828 32.4377 33.605C32.3544 33.8477 32.2286 34.1762 32.0604 34.5088C31.8944 34.837 31.6746 35.1943 31.3946 35.4759C31.1148 35.7575 30.731 36.0055 30.25 36.0055C29.769 36.0055 29.3852 35.7575 29.1054 35.4759C28.8254 35.1943 28.6056 34.837 28.4396 34.5088C28.2714 34.1762 28.1456 33.8477 28.0623 33.605C28.0204 33.4828 27.9887 33.3805 27.9671 33.3079C27.9564 33.2716 27.9481 33.2426 27.9424 33.2221L27.9358 33.1979L27.9339 33.1908L27.9333 33.1886L27.9331 33.1878L27.933 33.1875C27.933 33.1874 27.933 33.1873 28.4167 33.0607L27.933 33.1873L27.8302 32.7948L32.567 33.1873ZM32.567 33.1873L32.6698 32.7948L32.3069 32.6135L32.3069 32.6135L32.3068 32.6134L32.3066 32.6133L32.3047 32.6124L32.2959 32.6079L32.2592 32.5891C32.2268 32.5724 32.1792 32.5474 32.1198 32.5155C32.0008 32.4514 31.8359 32.3599 31.6531 32.2502C31.2775 32.0249 30.8636 31.7453 30.6036 31.4852L30.25 31.1317L29.8964 31.4852C29.6364 31.7453 29.2225 32.0249 28.8469 32.2502C28.6641 32.3599 28.4992 32.4514 28.3802 32.5155C28.3208 32.5474 28.2732 32.5724 28.2408 32.5891L28.2041 32.6079L28.1953 32.6124L28.1934 32.6133L28.1932 32.6134L28.1931 32.6135L28.1931 32.6135L32.567 33.1873ZM20.6742 8.97129L21.0277 9.32485L20.6742 8.97129C20.3225 9.32292 20.125 9.79984 20.125 10.2971C20.125 10.7944 20.3225 11.2713 20.6742 11.6229C21.0258 11.9746 21.5027 12.1721 22 12.1721C22.4973 12.1721 22.9742 11.9746 23.3258 11.6229C23.6775 11.2713 23.875 10.7944 23.875 10.2971C23.875 9.79984 23.6775 9.32292 23.3258 8.97129C22.9742 8.61966 22.4973 8.42212 22 8.42212C21.5027 8.42212 21.0258 8.61966 20.6742 8.97129ZM28.8552 17.0346L27.8938 17.7851L27.8743 17.6329L27.295 17.8299C26.1446 18.2212 24.4594 18.5055 22 18.5055C19.5405 18.5055 17.8554 18.2212 16.706 17.83L16.1266 17.6327L16.049 18.2398C15.9408 19.0852 16.014 19.9438 16.2636 20.7587C16.5133 21.5735 16.9336 22.3258 17.4967 22.9655C18.0598 23.6052 18.7526 24.1176 19.5292 24.4686C20.3058 24.8196 21.1482 25.0012 22.0005 25.0012C22.8527 25.0012 23.6951 24.8196 24.4717 24.4686C25.2483 24.1176 25.9412 23.6052 26.5042 22.9655C27.0673 22.3258 27.4877 21.5735 27.7373 20.7587C27.9869 19.9438 28.0601 19.0852 27.952 18.2398L27.9122 17.9288H28.7495C28.8882 18.8034 28.8557 19.698 28.6525 20.5625C28.4187 21.557 27.9649 22.4864 27.3245 23.2824C26.6841 24.0783 25.8734 24.7206 24.952 25.1618C24.0307 25.6031 23.0221 25.8322 22.0005 25.8322C20.9789 25.8322 19.9703 25.6031 19.0489 25.1618C18.1275 24.7206 17.3168 24.0783 16.6764 23.2824C16.036 22.4864 15.5822 21.557 15.3484 20.5625C15.1147 19.568 15.1069 18.5337 15.3256 17.5358L15.393 17.2282L15.1447 17.0345C14.5939 16.6049 14.3848 16.175 14.303 15.8781C14.2993 15.8648 14.2959 15.8517 14.2927 15.8388H29.707C29.7038 15.8516 29.7004 15.8647 29.6967 15.8779C29.6148 16.175 29.4056 16.605 28.8552 17.0346ZM23.5612 30.7279L23.5607 30.7281L23.151 30.9334L22.8099 31.1044L22.8847 31.4785L23.4136 34.1231L23.6504 35.3068L24.3199 34.3024L28.0578 28.6956C28.2015 28.6962 28.3389 28.6972 28.4691 28.6982C30.901 29.2571 33.3138 30.0962 35.1101 31.1993C36.9377 32.3217 38 33.6337 38 35.1003V38.6721H6V35.1003C6 33.6421 7.10541 32.3228 8.99507 31.1887C10.8432 30.0795 13.3053 29.2347 15.7333 28.6755C15.7537 28.676 15.7773 28.6765 15.8032 28.677C15.8389 28.6776 15.8817 28.6782 15.931 28.6788L19.7112 34.3483L20.3948 35.3734L20.6189 34.1618L21.1167 31.4714L21.185 31.1018L20.849 30.9334L20.4393 30.7281L20.4388 30.7279C20.3696 30.6933 20.3113 30.6401 20.2706 30.5743C20.23 30.5085 20.2084 30.4327 20.2083 30.3554V29.0888C20.2083 28.9783 20.2522 28.8723 20.3304 28.7942C20.4085 28.716 20.5145 28.6721 20.625 28.6721H23.375C23.4855 28.6721 23.5915 28.716 23.6696 28.7942L24.0232 28.4406L23.6696 28.7942C23.7478 28.8723 23.7917 28.9783 23.7917 29.0888V30.3554C23.7916 30.4327 23.7701 30.5085 23.7294 30.5743C23.6887 30.6401 23.6304 30.6933 23.5612 30.7279ZM12.875 9.9277C12.875 9.85948 12.9141 9.72386 13.1317 9.51867C13.3443 9.31814 13.6716 9.10558 14.1028 8.88961C14.9619 8.45938 16.1284 8.06664 17.3221 7.73292C18.5102 7.40077 19.7011 7.13358 20.5969 6.94921C21.0443 6.85713 21.4169 6.78594 21.6773 6.73783C21.8074 6.71378 21.9095 6.69552 21.9787 6.68331L22 6.67959L22.0213 6.68331C22.0905 6.69552 22.1926 6.71378 22.3227 6.73783C22.5831 6.78594 22.9557 6.85713 23.4031 6.94921C24.2989 7.13358 25.4898 7.40077 26.6779 7.73292C27.8716 8.06664 29.0381 8.45938 29.8972 8.88961C30.3284 9.10558 30.6557 9.31814 30.8683 9.51867C31.0859 9.72386 31.125 9.85948 31.125 9.9277C31.125 11.2375 30.7229 12.1511 30.334 12.7323C30.1383 13.0248 29.9442 13.2355 29.8026 13.3706C29.7641 13.4073 29.7296 13.4383 29.7002 13.4638H14.2998C14.2704 13.4383 14.2359 13.4073 14.1974 13.3706C14.0558 13.2355 13.8617 13.0248 13.666 12.7323C13.2771 12.1511 12.875 11.2375 12.875 9.9277ZM14.4103 13.5526L14.4104 13.5526L14.4103 13.5526Z" fill="#BA0000" fill-opacity="0.05" stroke="#BA0000"/>
</g>
</svg>
