<svg width="44" height="45" viewBox="0 0 44 45" fill="none" xmlns="http://www.w3.org/2000/svg">
<g id="mdi:wardrobe">
<path id="Vector" d="M12 39.1721V38.1721H11C9.53561 38.1721 8.33333 36.9698 8.33333 35.5054V8.00541C8.33333 6.54103 9.53561 5.33875 11 5.33875H20.0833V38.1721H14.6667H13.6667V39.1721V40.0054H12V39.1721ZM14.6667 18.0054H13.6667V19.0054V24.5054V25.5054H14.6667H18.3333H19.3333V24.5054V19.0054V18.0054H18.3333H14.6667ZM30.3333 39.1721V38.1721H29.3333H23.9167V5.33875H33C34.4644 5.33875 35.6667 6.54103 35.6667 8.00541V35.5054C35.6667 36.9698 34.4644 38.1721 33 38.1721H32V39.1721V40.0054H30.3333V39.1721ZM29.3333 25.5054H30.3333V24.5054V19.0054V18.0054H29.3333H25.6667H24.6667V19.0054V24.5054V25.5054H25.6667H29.3333Z" fill="#BA0000" fill-opacity="0.04" stroke="#BA0000" stroke-width="2"/>
</g>
</svg>
